<?xml version="1.0" encoding="UTF-8" standalone="no"?>
<!-- Generator: Adobe Illustrator 16.0.0, SVG Export Plug-In . SVG Version: 6.00 Build 0)  -->

<svg
   xmlns:dc="http://purl.org/dc/elements/1.1/"
   xmlns:cc="http://creativecommons.org/ns#"
   xmlns:rdf="http://www.w3.org/1999/02/22-rdf-syntax-ns#"
   xmlns:svg="http://www.w3.org/2000/svg"
   xmlns="http://www.w3.org/2000/svg"
   xmlns:sodipodi="http://sodipodi.sourceforge.net/DTD/sodipodi-0.dtd"
   xmlns:inkscape="http://www.inkscape.org/namespaces/inkscape"
   version="1.1"
   id="Layer_1"
   x="0px"
   y="0px"
   width="140px"
   height="32px"
   viewBox="0 0 140 32"
   enable-background="new 0 0 140 32"
   xml:space="preserve"
   sodipodi:docname="logo.svg"
   inkscape:version="0.92.0 r"><metadata
     id="metadata29"><rdf:RDF><cc:Work
         rdf:about=""><dc:format>image/svg+xml</dc:format><dc:type
           rdf:resource="http://purl.org/dc/dcmitype/StillImage" /><dc:title></dc:title></cc:Work></rdf:RDF></metadata><defs
     id="defs27" /><sodipodi:namedview
     pagecolor="#ffffff"
     bordercolor="#666666"
     borderopacity="1"
     objecttolerance="10"
     gridtolerance="10"
     guidetolerance="10"
     inkscape:pageopacity="0"
     inkscape:pageshadow="2"
     inkscape:window-width="1366"
     inkscape:window-height="716"
     id="namedview25"
     showgrid="false"
     inkscape:zoom="2.1571429"
     inkscape:cx="70"
     inkscape:cy="53.086093"
     inkscape:window-x="0"
     inkscape:window-y="28"
     inkscape:window-maximized="1"
     inkscape:current-layer="Layer_1" /><g
     id="g111"
     transform="matrix(0.05869345,0,0,0.05869345,42.075227,15.265493)"
     inkscape:export-filename="/home/jeff/Projetos/pydge/views/static/img/logo.png"
     inkscape:export-xdpi="90"
     inkscape:export-ydpi="90"><g
       transform="translate(-605.28814,-247.32203)"
       id="g6"><path
         inkscape:connector-curvature="0"
         id="path2"
         d="M 256,0 C 397.386,0 512,114.614 512,256 512,397.386 397.386,512 256,512 114.614,512 0,397.386 0,256 0,114.614 114.614,0 256,0 Z"
         style="fill:#838383" /><path
         inkscape:connector-curvature="0"
         id="path4"
         d="m 149.042,201.588 c 0,77.886 63.145,141.029 141.029,141.029 77.89,0 141.026,-63.143 141.026,-141.029 0,-77.886 -63.136,-141.027 -141.026,-141.027 -77.884,0 -141.029,63.142 -141.029,141.027 z"
         style="fill:#8f8f8f" /></g><path
       inkscape:connector-curvature="0"
       id="path8"
       d="m -391.34214,-155.18903 c 1.763,0 3.193,1.432 3.193,3.196 0,1.763 -1.43,3.195 -3.193,3.195 -1.764,0 -3.195,-1.432 -3.195,-3.195 0,-1.764 1.431,-3.196 3.195,-3.196 z m 103.457,-17.154 c 0.969,0 1.75,0.786 1.75,1.75 0,0.964 -0.781,1.748 -1.75,1.748 -0.965,0 -1.748,-0.783 -1.748,-1.748 0,-0.965 0.783,-1.75 1.748,-1.75 z m -60.011,-55.749 c 1.535,0 2.783,1.246 2.783,2.783 0,1.535 -1.248,2.781 -2.783,2.781 -1.535,0 -2.783,-1.246 -2.783,-2.781 0,-1.537 1.249,-2.783 2.783,-2.783 z m 161.707,411.368 c 0.964,0 1.75,0.783 1.75,1.748 0,0.965 -0.785,1.748 -1.75,1.748 -0.967,0 -1.748,-0.783 -1.748,-1.748 0,-0.965 0.782,-1.748 1.748,-1.748 z m -296.982,-5.67 c 0.965,0 1.748,0.783 1.748,1.75 0,0.967 -0.783,1.748 -1.748,1.748 -0.966,0 -1.75,-0.781 -1.75,-1.748 10e-4,-0.966 0.784,-1.75 1.75,-1.75 z m 186.075,63.524 c 0.964,0 1.75,0.783 1.75,1.75 0,0.966 -0.786,1.748 -1.75,1.748 -0.967,0 -1.75,-0.781 -1.75,-1.748 -0.001,-0.966 0.783,-1.75 1.75,-1.75 z m 162.712,-244.0700039 c 0.964,0 1.748,0.783 1.748,1.748 0,0.969 -0.783,1.75 -1.748,1.75 -0.964,0 -1.748,-0.781 -1.748,-1.75 0,-0.965 0.783,-1.748 1.748,-1.748 z m -28.498,-33.0700001 c 0.967,0 1.748,0.785 1.748,1.75 0,0.967 -0.781,1.748 -1.748,1.748 -0.966,0 -1.75,-0.781 -1.75,-1.748 0,-0.964 0.784,-1.75 1.75,-1.75 z m 10.223,72.725 c 0.967,0 1.748,0.781 1.748,1.75 0,0.964 -0.781,1.748 -1.748,1.748 -0.964,0 -1.748,-0.783 -1.748,-1.748 0,-0.969 0.784,-1.75 1.748,-1.75 z m -103.76,126.557004 c 0.967,0 1.748,0.783 1.748,1.748 0,0.964 -0.781,1.748 -1.748,1.748 -0.965,0 -1.748,-0.783 -1.748,-1.748 0,-0.964 0.783,-1.748 1.748,-1.748 z m -263.83,-303.464 c 0.967,0 1.748,0.781 1.748,1.748 0,0.967 -0.781,1.75 -1.748,1.75 -0.964,0 -1.748,-0.783 -1.748,-1.75 0,-0.967 0.784,-1.748 1.748,-1.748 z m 74.895,-47.668 c 0.967,0 1.748,0.781 1.748,1.748 0,0.965 -0.781,1.75 -1.748,1.75 -0.967,0 -1.75,-0.785 -1.75,-1.75 -0.001,-0.966 0.783,-1.748 1.75,-1.748 z m -138.242,188.4179961 c 0.964,0 1.748,0.783 1.748,1.75 0,0.964 -0.783,1.75 -1.748,1.75 -0.964,0 -1.748,-0.785 -1.748,-1.75 0,-0.967 0.784,-1.75 1.748,-1.75 z m 75.742,55.2269999 c 0.964,0 1.748,0.783 1.748,1.748 0,0.964 -0.783,1.75 -1.748,1.75 -0.967,0 -1.748,-0.786 -1.748,-1.75 0,-0.965 0.781,-1.748 1.748,-1.748 z m 7.364,63.310004 c 0.967,0 1.75,0.783 1.75,1.75 0,0.967 -0.783,1.748 -1.75,1.748 -0.964,0 -1.75,-0.781 -1.75,-1.748 0,-0.967 0.786,-1.75 1.75,-1.75 z m 289.828,-289.83 c 0.966,0 1.75,0.783 1.75,1.748 0,0.966 -0.783,1.748 -1.75,1.748 -0.965,0 -1.748,-0.781 -1.748,-1.748 0,-0.965 0.783,-1.748 1.748,-1.748 z m 21.403,29.979 c 3.773,0 6.831,3.058 6.831,6.831 0,3.77 -3.058,6.828 -6.831,6.828 -3.773,0 -6.831,-3.058 -6.831,-6.828 0.001,-3.773 3.059,-6.831 6.831,-6.831 z m -228.427,338.314 c 1.764,0 3.196,1.434 3.196,3.195 0,1.764 -1.432,3.196 -3.196,3.196 -1.763,0 -3.193,-1.432 -3.193,-3.196 0,-1.761 1.429,-3.195 3.193,-3.195 z m 256.277,-110.951004 c 6.874,0 12.447,5.575 12.447,12.448 0,6.876004 -5.573,12.452004 -12.447,12.452004 -6.876,0 -12.45,-5.575 -12.45,-12.452004 0,-6.873 5.574,-12.448 12.45,-12.448 z m -344.024,-137.978 c 4.446,0 8.052,3.605 8.052,8.053 0,4.449 -3.605,8.054 -8.052,8.054 -4.446,0 -8.053,-3.605 -8.053,-8.054 -10e-4,-4.447 3.607,-8.053 8.053,-8.053 z m 40.677,-76.496996 c 1.764,0 3.196,1.434 3.196,3.198 0,1.761 -1.432,3.195 -3.196,3.195 -1.763,0 -3.193,-1.434 -3.193,-3.195 0,-1.765 1.429,-3.198 3.193,-3.198 z"
       style="fill:#fafbfc" /><path
       inkscape:connector-curvature="0"
       id="path10"
       d="m -266.45014,-163.63403 c 44.454,0 80.49,36.038 80.49,80.492996 0,44.454 -36.036,80.4920001 -80.49,80.4920001 -44.456,0 -80.493,-36.0380001 -80.493,-80.4920001 0,-44.454996 36.037,-80.492996 80.493,-80.492996 z"
       style="fill:#fbfbfb" /><path
       inkscape:connector-curvature="0"
       id="path12"
       d="m -266.45014,-153.68303 c 38.958,0 70.542,31.583 70.542,70.541996 0,38.961 -31.584,70.542 -70.542,70.542 -38.962,0 -70.542,-31.581 -70.542,-70.542 0,-38.959996 31.58,-70.541996 70.542,-70.541996 z"
       style="fill:#ffffff" /><path
       inkscape:connector-curvature="0"
       id="path14"
       d="m -233.57714,-145.56803 c 11.64,6.146 21.355,15.448 28.003,26.771 -3.404,2.918 -7.827,4.68 -12.663,4.68 -10.75,0 -19.466,-8.714 -19.466,-19.464 0,-4.522 1.544,-8.68 4.126,-11.987 z m -81.285,43.238 c 10.75,0 19.466,8.713996 19.466,19.465996 0,10.75 -8.716,19.464 -19.466,19.464 -10.75,0 -19.466,-8.714 -19.466,-19.464 0,-10.753 8.715,-19.465996 19.466,-19.465996 z m 53.05,1.5 c 10.748,0 19.466,8.717996 19.466,19.465996 0,10.752 -8.718,19.468 -19.466,19.468 -10.752,0 -19.468,-8.716 -19.468,-19.468 0.001,-10.748 8.716,-19.465996 19.468,-19.465996 z"
       style="fill:#efefef" /><path
       inkscape:connector-curvature="0"
       id="path16"
       d="m -532.06814,187.89397 c 14.328,-18.959 28.749,-36.425 43.501,-52.171 11.698,-12.493 32.701,-13.322 46.177,-4.506 65.323,42.729 103.025,86.626 128.279,131.044 -11.502,1.581 -23.243,2.417 -35.177,2.417 -71.598,0 -136.322,-29.405 -182.78,-76.784 z"
       style="fill:#6c4c40" /><path
       inkscape:connector-curvature="0"
       id="path18"
       d="m -455.16514,126.11297 c 4.604,0.909 8.989,2.627 12.775,5.104 65.323,42.729 103.025,86.626 128.279,131.044 -11.502,1.581 -23.243,2.417 -35.177,2.417 -39.305,0 -76.534,-8.867 -109.814,-24.695 11.066,-7.676 20.535,-17.258 10.283,-36.034 -22.568,-41.325 -6.346,-77.836 -6.346,-77.836 z"
       style="fill:#4b342c" /><path
       inkscape:connector-curvature="0"
       id="path20"
       d="m -333.67114,264.18997 c 25.969,-64.305 62.626,-131.967 133.014,-210.236004 3.258,-3.622 6.79,-6.469 10.395,-8.514 28.527,19.839 52.89,45.246 71.52,74.647004 -39.288,81.143 -120.156,138.397 -214.929,144.103 z"
       style="fill:#6c4c40" /><path
       inkscape:connector-curvature="0"
       id="path22"
       d="m -175.75514,196.86797 c 7.538,-18.064 9.093,-36.696 -7.36,-45.549 -30.305,-16.307 -9.547,-79.425004 -1.118,-101.564004 25.941,19.156 48.19,43.025 65.491,70.332004 -14.087,29.088 -33.518,55.105 -57.013,76.781 z"
       style="fill:#5c4036" /><g
       transform="translate(-605.28814,-247.32203)"
       id="g48"><path
         inkscape:connector-curvature="0"
         id="path24"
         d="m 155.854,238.385 c 1.457,0 2.639,1.182 2.639,2.641 0,1.457 -1.182,2.639 -2.639,2.639 -1.459,0 -2.641,-1.182 -2.641,-2.639 0,-1.459 1.182,-2.641 2.641,-2.641 z"
         style="fill:#ffffff" /><path
         inkscape:connector-curvature="0"
         id="path26"
         d="m 233.217,281.785 c 1.457,0 2.639,1.182 2.639,2.641 0,1.459 -1.182,2.641 -2.639,2.641 -1.459,0 -2.641,-1.182 -2.641,-2.641 0,-1.459 1.182,-2.641 2.641,-2.641 z"
         style="fill:#ffffff" /><path
         inkscape:connector-curvature="0"
         id="path28"
         d="m 218.122,229.962 c 1.457,0 2.639,1.182 2.639,2.641 0,1.457 -1.182,2.639 -2.639,2.639 -1.459,0 -2.641,-1.182 -2.641,-2.639 0,-1.459 1.182,-2.641 2.641,-2.641 z"
         style="fill:#ffffff" /><path
         inkscape:connector-curvature="0"
         id="path30"
         d="m 292.084,284.303 c 1.459,0 2.641,1.182 2.641,2.641 0,1.457 -1.182,2.639 -2.641,2.639 -1.457,0 -2.639,-1.182 -2.639,-2.639 0.001,-1.459 1.182,-2.641 2.639,-2.641 z"
         style="fill:#ffffff" /><path
         inkscape:connector-curvature="0"
         id="path32"
         d="m 159.757,301.913 c 1.459,0 2.641,1.182 2.641,2.641 0,1.457 -1.182,2.639 -2.641,2.639 -1.457,0 -2.639,-1.182 -2.639,-2.639 0,-1.459 1.182,-2.641 2.639,-2.641 z"
         style="fill:#ffffff" /><path
         inkscape:connector-curvature="0"
         id="path34"
         d="m 259.379,367.322 c 1.459,0 2.641,1.182 2.641,2.639 0,1.459 -1.182,2.641 -2.641,2.641 -1.457,0 -2.639,-1.182 -2.639,-2.641 0,-1.457 1.181,-2.639 2.639,-2.639 z"
         style="fill:#ffffff" /><path
         inkscape:connector-curvature="0"
         id="path36"
         d="m 313.717,326.063 c 1.459,0 2.641,1.182 2.641,2.641 0,1.457 -1.182,2.639 -2.641,2.639 -1.457,0 -2.639,-1.182 -2.639,-2.639 0,-1.459 1.182,-2.641 2.639,-2.641 z"
         style="fill:#ffffff" /><path
         inkscape:connector-curvature="0"
         id="path38"
         d="m 216.109,334.619 c 1.459,0 2.641,1.182 2.641,2.639 0,1.459 -1.182,2.641 -2.641,2.641 -1.459,0 -2.641,-1.182 -2.641,-2.641 0,-1.457 1.181,-2.639 2.641,-2.639 z"
         style="fill:#ffffff" /><path
         inkscape:connector-curvature="0"
         id="path40"
         d="m 52.588,287.823 c 1.457,0 2.641,1.182 2.641,2.641 0,1.459 -1.184,2.641 -2.641,2.641 -1.459,0 -2.641,-1.182 -2.641,-2.641 0,-1.458 1.182,-2.641 2.641,-2.641 z"
         style="fill:#ffffff" /><path
         inkscape:connector-curvature="0"
         id="path42"
         d="m 364.536,279.271 c 1.459,0 2.641,1.182 2.641,2.641 0,1.459 -1.182,2.641 -2.641,2.641 -1.457,0 -2.639,-1.182 -2.639,-2.641 0.001,-1.46 1.183,-2.641 2.639,-2.641 z"
         style="fill:#ffffff" /><path
         inkscape:connector-curvature="0"
         id="path44"
         d="m 208.059,155.377 c 1.459,0 2.641,1.182 2.641,2.639 0,1.459 -1.182,2.641 -2.641,2.641 -1.457,0 -2.639,-1.182 -2.639,-2.641 0.001,-1.456 1.182,-2.639 2.639,-2.639 z"
         style="fill:#ffffff" /><path
         inkscape:connector-curvature="0"
         id="path46"
         d="m 64.788,163.049 c 1.457,0 2.639,1.182 2.639,2.641 0,1.457 -1.182,2.639 -2.639,2.639 -1.459,0 -2.641,-1.182 -2.641,-2.639 0,-1.459 1.182,-2.641 2.641,-2.641 z"
         style="fill:#ffffff" /></g></g><text
     xml:space="preserve"
     style="font-style:normal;font-weight:normal;font-size:6.48561859px;line-height:4.0535121px;font-family:sans-serif;letter-spacing:0px;word-spacing:0px;fill:#f9f9f9;fill-opacity:1;stroke:none;stroke-width:0.16214046;"
     x="42.126476"
     y="20.334169"
     id="text115"
     inkscape:export-filename="/home/jeff/Projetos/pydge/views/static/img/logo.png"
     inkscape:export-xdpi="90"
     inkscape:export-ydpi="90"><tspan
       sodipodi:role="line"
       id="tspan113"
       x="42.126476"
       y="20.334169"
       style="font-style:normal;font-variant:normal;font-weight:bold;font-stretch:normal;font-size:25.89840698px;font-family:Cantarell;-inkscape-font-specification:'Cantarell Bold';fill:#f9f9f9;stroke-width:0.16214046;">PYDGE</tspan></text>
<text
     xml:space="preserve"
     style="font-style:normal;font-weight:normal;font-size:6.01020956px;line-height:3.75638127px;font-family:sans-serif;letter-spacing:0px;word-spacing:0px;fill:#f9f9f9;fill-opacity:1;stroke:none;stroke-width:0.15025523;"
     x="42.72541"
     y="31.595108"
     id="text115-1"
     inkscape:export-filename="/home/jeff/Projetos/pydge/views/static/img/logo.png"
     inkscape:export-xdpi="90"
     inkscape:export-ydpi="90"><tspan
       sodipodi:role="line"
       id="tspan113-8"
       x="42.72541"
       y="31.595108"
       style="font-style:normal;font-variant:normal;font-weight:bold;font-stretch:normal;font-size:13.33333302px;font-family:Cantarell;-inkscape-font-specification:'Cantarell Bold';fill:#f9f9f9;stroke-width:0.15025523;">FRAMEWORK</tspan></text>
</svg>